<svg aria-hidden="true" style="position: absolute; width: 0; height: 0; overflow: hidden;" version="1.1" xmlns="http://www.w3.org/2000/svg" xmlns:xlink="http://www.w3.org/1999/xlink">
<defs>
<symbol id="icon-alarm" viewBox="0 0 32 32">
<path d="M27 23h-22l-3 3v1l1 1h9c0 2.209 1.791 4 4 4s4-1.791 4-4h9l1-1v-1l-3-3zM26 15c0-4.1-2.47-7.618-6-9.162v-1.838c0-2.209-1.791-4-4-4s-4 1.791-4 4v1.838c-3.53 1.544-6 5.062-6 9.162v7h20v-7zM14 4c0-1.104 0.896-2 2-2s2 0.896 2 2h-4z"></path>
</symbol>
<symbol id="icon-book" viewBox="0 0 32 32">
<path d="M28 4v26h-21c-1.657 0-3-1.343-3-3s1.343-3 3-3h19v-24h-20c-2.2 0-4 1.8-4 4v24c0 2.2 1.8 4 4 4h24v-28h-2z"></path>
<path d="M7.002 26v0c-0.001 0-0.001 0-0.002 0-0.552 0-1 0.448-1 1s0.448 1 1 1c0.001 0 0.001-0 0.002-0v0h18.997v-2h-18.997z"></path>
</symbol>
<symbol id="icon-user-tie" viewBox="0 0 32 32">
<path d="M10 6c0-3.314 2.686-6 6-6s6 2.686 6 6c0 3.314-2.686 6-6 6s-6-2.686-6-6zM24.002 14h-1.107l-6.222 12.633 2.327-11.633-3-3-3 3 2.327 11.633-6.222-12.633h-1.107c-3.998 0-3.998 2.687-3.998 6v10h24v-10c0-3.313 0-6-3.998-6z"></path>
</symbol>
<symbol id="icon-search" viewBox="0 0 32 32">
<path d="M31.008 27.231l-7.58-6.447c-0.784-0.705-1.622-1.029-2.299-0.998 1.789-2.096 2.87-4.815 2.87-7.787 0-6.627-5.373-12-12-12s-12 5.373-12 12 5.373 12 12 12c2.972 0 5.691-1.081 7.787-2.87-0.031 0.677 0.293 1.515 0.998 2.299l6.447 7.58c1.104 1.226 2.907 1.33 4.007 0.23s0.997-2.903-0.23-4.007zM12 20c-4.418 0-8-3.582-8-8s3.582-8 8-8 8 3.582 8 8-3.582 8-8 8z"></path>
</symbol>
<symbol id="icon-cog" viewBox="0 0 32 32">
<path d="M29.181 19.070c-1.679-2.908-0.669-6.634 2.255-8.328l-3.145-5.447c-0.898 0.527-1.943 0.829-3.058 0.829-3.361 0-6.085-2.742-6.085-6.125h-6.289c0.008 1.044-0.252 2.103-0.811 3.070-1.679 2.908-5.411 3.897-8.339 2.211l-3.144 5.447c0.905 0.515 1.689 1.268 2.246 2.234 1.676 2.903 0.672 6.623-2.241 8.319l3.145 5.447c0.895-0.522 1.935-0.82 3.044-0.82 3.35 0 6.067 2.725 6.084 6.092h6.289c-0.003-1.034 0.259-2.080 0.811-3.038 1.676-2.903 5.399-3.894 8.325-2.219l3.145-5.447c-0.899-0.515-1.678-1.266-2.232-2.226zM16 22.479c-3.578 0-6.479-2.901-6.479-6.479s2.901-6.479 6.479-6.479c3.578 0 6.479 2.901 6.479 6.479s-2.901 6.479-6.479 6.479z"></path>
</symbol>
<symbol id="icon-pie-chart" viewBox="0 0 32 32">
<path d="M14 18v-14c-7.732 0-14 6.268-14 14s6.268 14 14 14 14-6.268 14-14c0-2.251-0.532-4.378-1.476-6.262l-12.524 6.262zM28.524 7.738c-2.299-4.588-7.043-7.738-12.524-7.738v14l12.524-6.262z"></path>
</symbol>
<symbol id="icon-users-icon" viewBox="0 0 32 32">
<path fill="#707070" style="fill: var(--color1, #707070)" d="M8.019 12.178c0 1.476-1.197 2.673-2.673 2.673s-2.673-1.197-2.673-2.673c0-1.476 1.197-2.673 2.673-2.673s2.673 1.197 2.673 2.673z"></path>
<path fill="#707070" style="fill: var(--color1, #707070)" d="M8.914 16.721c-1.362 1.033-2.232 2.652-2.232 4.474 0 0.001 0 0.002 0 0.003v-0 0.334h-5.682c-0.55-0.006-0.994-0.45-1-0.999v-0.669c0-0.002 0-0.003 0-0.005 0-2.029 1.644-3.673 3.673-3.673 0.001 0 0.001 0 0.002 0h3.341c0.702 0.001 1.358 0.2 1.914 0.544l-0.016-0.009z"></path>
<path fill="#707070" style="fill: var(--color1, #707070)" d="M29.401 12.178c0 1.476-1.197 2.673-2.673 2.673s-2.673-1.197-2.673-2.673c0-1.476 1.197-2.673 2.673-2.673s2.673 1.197 2.673 2.673z"></path>
<path fill="#707070" style="fill: var(--color1, #707070)" d="M32.073 19.861v0.668c-0.006 0.55-0.45 0.994-0.999 1h-5.681v-0.334c0-0.001 0-0.002 0-0.003 0-1.822-0.87-3.441-2.218-4.464l-0.014-0.010c0.541-0.335 1.197-0.534 1.9-0.535h3.341c2.028 0.001 3.671 1.645 3.671 3.673 0 0.002 0 0.004 0 0.005v-0z"></path>
<path fill="#707070" style="fill: var(--color1, #707070)" d="M20.045 11.509c0 2.214-1.795 4.009-4.009 4.009s-4.009-1.795-4.009-4.009c0-2.214 1.795-4.009 4.009-4.009s4.009 1.795 4.009 4.009z"></path>
<path fill="#707070" style="fill: var(--color1, #707070)" d="M19.711 17.523h-7.35c-2.029 0.002-3.673 1.646-3.675 3.675v2c0 0.552 0.448 1 1 1v0h12.7c0.552 0 1-0.448 1-1v0-2c-0.002-2.029-1.646-3.673-3.675-3.675h-0z"></path>
</symbol>
<symbol id="icon-light-bulb" viewBox="0 0 20 20">
<path d="M7.186 19.172c0.789 0.51 1.701 0.855 2.814 0.828 1.111 0.027 2.025-0.318 2.814-0.828l-0.017-2.172h-5.594l-0.017 2.172zM12.697 16c0-4.357 4.63-5.848 4.283-10.188-0.218-2.738-2.073-5.81-6.98-5.81s-6.762 3.072-6.981 5.811c-0.347 4.339 4.284 5.83 4.284 10.187h5.394zM5 6c0.207-2.598 2.113-4 5-4s4.654 1.371 4.861 3.969c0.113 1.424-0.705 2.373-1.809 3.926-0.814 1.146-1.603 2.343-2.052 4.105h-2c-0.449-1.762-1.238-2.959-2.053-4.106-1.103-1.552-2.061-2.47-1.947-3.894z"></path>
</symbol>
<symbol id="icon-log-out" viewBox="0 0 20 20">
<path d="M19 10l-6-5v3h-7v4h7v3l6-5zM3 3h8v-2h-8c-1.1 0-2 0.9-2 2v14c0 1.1 0.9 2 2 2h8v-2h-8v-14z"></path>
</symbol>
<symbol id="icon-video" viewBox="0 0 20 20">
<path d="M20 5v-1.201c0-0.442-0.357-0.799-0.799-0.799h-18.4c-0.443 0-0.801 0.357-0.801 0.799v1.201h2v2h-2v2h2v2h-2v2h2v2h-2v1.199c0 0.442 0.358 0.801 0.801 0.801h18.4c0.442 0 0.799-0.359 0.799-0.801v-1.199h-2v-2h2v-2h-2v-2h2v-2h-2v-2h2zM8 13v-6l5 3-5 3z"></path>
</symbol>
<symbol id="icon-vinyl" viewBox="0 0 20 20">
<path d="M9.999 0.8c-5.081 0-9.199 4.119-9.199 9.201 0 5.080 4.118 9.199 9.199 9.199s9.2-4.119 9.2-9.199c0-5.082-4.119-9.201-9.2-9.201zM10 13.001c-1.657 0-3-1.344-3-3s1.343-3 3-3c1.656 0 3 1.344 3 3s-1.344 3-3 3z"></path>
</symbol>
<symbol id="icon-menu-white" viewBox="0 0 43 32">
<path d="M3.2 0h19.199c1.767 0 3.2 1.433 3.2 3.2s-1.433 3.2-3.2 3.2h-19.199c-1.768 0-3.2-1.433-3.2-3.2s1.433-3.2 3.2-3.2z"></path>
<path d="M20.267 25.599h19.199c1.767 0 3.2 1.433 3.2 3.2s-1.433 3.2-3.2 3.2h-19.199c-1.767 0-3.2-1.433-3.2-3.2s1.433-3.2 3.2-3.2z"></path>
<path d="M3.2 12.8h36.265c1.767 0 3.2 1.433 3.2 3.2s-1.433 3.2-3.2 3.2h-36.265c-1.768 0-3.2-1.433-3.2-3.2s1.433-3.2 3.2-3.2z"></path>
</symbol>
<symbol id="icon-dots-three-vertical" viewBox="0 0 20 20">
<path d="M10.001 7.8c-1.215 0-2.201 0.985-2.201 2.2s0.986 2.2 2.201 2.2c1.215 0 2.199-0.985 2.199-2.2s-0.984-2.2-2.199-2.2zM10.001 5.2c1.215 0 2.199-0.986 2.199-2.2s-0.984-2.2-2.199-2.2c-1.215 0-2.201 0.985-2.201 2.2s0.986 2.2 2.201 2.2zM10.001 14.8c-1.215 0-2.201 0.985-2.201 2.2s0.986 2.2 2.201 2.2c1.215 0 2.199-0.985 2.199-2.2s-0.984-2.2-2.199-2.2z"></path>
</symbol>
</defs>
</svg>
